{"glyphs":{"0":{"ha":717,"x_min":104,"x_max":613,"o":"m 358 1021 q 458 1001 411 1021 q 538 947 504 981 q 592 866 572 913 q 613 767 613 819 l 613 257 q 592 158 613 204 q 538 77 572 111 q 458 23 504 43 q 358 3 411 3 q 259 23 306 3 q 178 77 213 43 q 124 158 144 111 q 104 257 104 204 l 104 767 q 124 866 104 819 q 178 947 144 913 q 259 1001 213 981 q 358 1021 306 1021 m 181 257 q 189 207 181 229 l 481 896 q 426 932 457 919 q 358 944 394 944 q 290 931 322 944 q 233 892 257 917 q 194 836 208 868 q 181 767 181 804 l 181 257 m 536 767 q 534 792 536 781 q 529 817 532 804 l 238 126 q 292 92 261 104 q 358 79 324 79 q 428 93 396 79 q 484 131 460 107 q 522 188 508 156 q 536 257 536 219 l 536 767 z "},"1":{"ha":336,"x_min":104,"x_max":232,"o":"m 232 0 l 156 0 l 156 946 l 104 946 l 104 1022 l 232 1022 l 232 0 l 232 0 z "},"2":{"ha":717,"x_min":104,"x_max":613,"o":"m 613 3 l 107 3 l 107 42 q 126 145 107 94 q 178 244 146 196 q 249 338 210 292 q 331 429 289 383 q 405 513 368 471 q 471 597 442 554 q 518 681 500 639 q 536 767 536 724 q 522 835 536 803 q 484 892 508 868 q 428 931 460 917 q 358 944 396 944 q 290 931 322 944 q 233 892 257 917 q 194 835 208 868 q 181 767 181 803 l 104 767 q 124 866 104 819 q 178 947 144 913 q 259 1001 213 981 q 358 1021 306 1021 q 458 1001 411 1021 q 538 947 504 981 q 592 866 572 913 q 613 767 613 819 q 593 663 613 713 q 542 564 574 613 q 469 469 510 515 q 388 376 429 422 q 322 303 354 340 q 262 229 289 267 q 215 155 235 192 q 188 81 194 118 l 613 81 l 613 3 z "},"3":{"ha":717,"x_min":104,"x_max":613,"o":"m 613 726 q 580 601 613 658 q 493 511 547 544 q 580 420 547 476 q 613 294 613 364 l 613 257 q 592 158 613 204 q 538 78 572 113 q 458 23 504 43 q 358 3 411 3 q 261 22 307 3 q 179 78 215 42 q 124 160 143 114 q 104 257 104 207 l 181 257 q 194 189 181 221 q 233 132 208 157 q 358 81 285 81 q 428 94 396 81 q 484 132 460 108 q 522 188 508 156 q 536 257 536 221 l 536 294 q 522 363 536 331 q 485 419 508 396 q 429 458 461 443 q 361 472 397 472 l 358 472 l 322 472 l 322 549 l 358 549 l 361 549 q 429 563 397 549 q 485 601 461 578 q 522 658 508 625 q 536 726 536 690 l 536 767 q 522 835 536 803 q 484 892 508 868 q 428 931 460 917 q 358 944 396 944 q 290 931 322 944 q 233 892 257 917 q 194 835 208 868 q 181 767 181 803 l 104 767 q 124 866 104 819 q 178 947 144 913 q 259 1001 213 981 q 358 1021 306 1021 q 458 1001 411 1021 q 538 947 504 981 q 592 866 572 913 q 613 767 613 819 l 613 726 l 613 726 z "},"4":{"ha":651,"x_min":104,"x_max":547,"o":"m 547 0 l 471 0 l 471 258 l 104 258 l 104 360 l 410 1022 l 547 1022 l 547 0 l 547 0 m 181 335 l 471 335 l 471 946 l 460 946 l 181 343 l 181 335 l 181 335 z "},"5":{"ha":717,"x_min":104,"x_max":613,"o":"m 358 3 q 259 23 306 3 q 178 78 213 43 q 124 158 144 113 q 104 257 104 204 l 181 257 q 194 188 181 221 q 233 132 208 156 q 290 94 257 108 q 358 81 322 81 q 428 94 396 81 q 484 132 460 108 q 522 188 508 156 q 536 257 536 221 l 536 450 q 522 519 536 488 q 484 576 508 551 q 428 614 460 600 q 358 628 396 628 q 295 616 325 628 q 242 584 265 604 q 203 536 219 564 q 183 476 188 508 l 181 447 l 104 450 q 105 468 104 460 q 107 485 106 476 l 146 1019 l 563 1019 l 563 943 l 217 943 l 196 644 q 269 688 228 672 q 358 704 311 704 q 458 684 411 704 q 538 630 504 664 q 592 549 572 596 q 613 450 613 503 l 613 257 q 592 158 613 204 q 538 78 572 113 q 458 23 504 43 q 358 3 411 3 z "},"6":{"ha":717,"x_min":104,"x_max":613,"o":"m 358 3 q 261 22 307 3 q 179 78 215 42 q 124 160 143 114 q 104 257 104 207 l 104 767 q 124 864 104 818 q 179 946 143 910 q 261 1001 215 982 q 358 1021 307 1021 q 539 946 464 1021 l 485 892 q 358 944 432 944 q 233 892 286 944 q 194 835 208 867 q 181 767 181 803 l 181 589 q 263 642 217 624 q 358 661 308 661 q 539 586 464 661 q 594 504 575 550 q 613 407 613 458 l 613 257 q 594 160 613 207 q 539 78 575 114 q 358 3 464 3 m 181 407 l 181 257 q 194 189 181 221 q 233 132 208 157 q 358 81 285 81 q 427 94 394 81 q 485 132 460 107 q 536 257 536 183 l 536 407 q 485 532 536 481 q 427 571 460 557 q 358 585 394 585 q 233 532 286 585 q 194 475 208 507 q 181 407 181 443 z "},"7":{"ha":671,"x_min":104,"x_max":567,"o":"m 104 1022 l 567 1021 l 563 943 l 338 0 l 260 0 l 485 944 l 104 946 l 104 1022 l 104 1022 z "},"8":{"ha":796,"x_min":104,"x_max":692,"o":"m 538 554 q 649 449 607 518 q 692 296 692 381 q 669 182 692 235 q 606 89 646 129 q 512 26 565 49 q 399 3 458 3 q 284 26 338 3 q 190 89 231 49 q 127 182 150 129 q 104 296 104 235 q 147 449 104 381 q 258 554 189 518 q 176 644 207 589 q 144 767 144 700 q 165 866 144 819 q 219 947 185 913 q 299 1001 253 981 q 399 1021 346 1021 q 498 1001 451 1021 q 578 947 544 981 q 633 866 613 913 q 653 767 653 819 q 622 644 653 700 q 538 554 590 589 m 221 767 q 235 698 221 731 q 272 642 249 665 q 328 604 296 618 q 396 590 360 590 l 399 590 l 400 590 q 468 604 436 590 q 524 642 500 618 q 561 698 547 665 q 575 767 575 731 q 561 836 575 804 q 523 892 547 868 q 467 931 499 917 q 399 944 435 944 q 329 931 361 944 q 273 892 297 917 q 235 836 249 868 q 221 767 221 804 m 399 79 q 483 97 443 79 q 551 143 522 114 q 598 212 581 172 q 615 296 615 251 q 599 380 615 340 q 553 449 582 419 q 485 495 524 478 q 401 513 446 513 l 399 513 l 394 513 q 311 495 350 513 q 243 449 272 478 q 197 380 214 419 q 181 296 181 340 q 198 212 181 251 q 244 143 215 172 q 313 97 274 114 q 399 79 353 79 z "},"9":{"ha":717,"x_min":104,"x_max":613,"o":"m 358 3 q 261 22 307 3 q 179 78 215 42 l 233 132 q 358 81 285 81 q 427 94 394 81 q 485 132 460 107 q 536 257 536 183 l 536 435 q 454 381 500 400 q 358 363 408 363 q 261 382 307 363 q 179 438 215 401 q 124 519 143 474 q 104 617 104 565 l 104 767 q 124 864 104 818 q 179 946 143 910 q 261 1001 215 982 q 358 1021 307 1021 q 539 946 464 1021 q 594 864 575 910 q 613 767 613 818 l 613 257 q 594 160 613 207 q 539 78 575 114 q 358 3 464 3 m 358 944 q 233 892 286 944 q 194 835 208 867 q 181 767 181 803 l 181 617 q 233 492 181 544 q 290 453 258 467 q 358 439 322 439 q 427 453 394 439 q 485 492 460 467 q 536 617 536 543 l 536 767 q 485 892 536 840 q 358 944 432 944 z "},"B":{"ha":717,"x_min":104,"x_max":613,"o":"m 318 1 l 104 1 l 104 1019 l 318 1019 q 417 999 371 1019 q 498 945 464 979 q 552 865 532 911 q 572 765 572 818 q 541 643 572 699 q 458 553 510 588 q 570 447 528 515 q 613 294 613 378 q 590 181 613 233 q 526 88 567 128 q 433 24 486 47 q 318 1 379 1 m 181 78 l 318 78 q 403 95 364 78 q 472 142 443 113 q 519 210 501 171 q 536 294 536 250 q 519 378 536 339 q 474 446 503 417 q 407 492 446 475 q 325 511 368 510 l 318 511 l 181 511 l 181 78 m 181 588 l 318 589 l 325 589 q 391 604 360 590 q 446 642 422 618 q 483 698 469 667 q 496 765 496 729 q 482 835 496 803 q 444 891 468 867 q 388 929 419 915 q 318 943 356 943 l 181 943 l 181 588 z "},"C":{"ha":717,"x_min":104,"x_max":613,"o":"m 358 1 q 259 22 306 1 q 178 76 213 42 q 124 156 144 110 q 104 256 104 203 l 104 765 q 124 865 104 818 q 178 945 144 911 q 259 999 213 979 q 358 1019 306 1019 q 458 999 411 1019 q 538 945 504 979 q 592 865 572 911 q 613 765 613 818 l 536 765 q 522 835 536 803 q 484 891 508 867 q 428 929 460 915 q 358 943 396 943 q 290 929 322 943 q 233 891 257 915 q 194 835 208 867 q 181 765 181 803 l 181 256 q 194 186 181 218 q 233 130 208 154 q 290 92 257 106 q 358 78 322 78 q 428 92 396 78 q 484 130 460 106 q 522 186 508 154 q 536 256 536 218 l 613 256 q 592 156 613 203 q 538 76 572 110 q 458 22 504 42 q 358 1 411 1 z "},"D":{"ha":692,"x_min":104,"x_max":588,"o":"m 333 1019 q 433 999 386 1019 q 513 945 479 979 q 567 865 547 911 q 588 765 588 818 l 588 256 q 567 156 588 203 q 513 76 547 110 q 433 22 479 42 q 333 1 386 1 l 181 1 l 181 -1 l 104 -1 l 104 1021 l 181 1021 l 181 1019 l 333 1019 m 511 765 q 497 835 511 803 q 459 891 483 867 q 402 929 435 915 q 333 943 369 943 l 181 943 l 181 78 l 333 78 q 402 92 369 78 q 459 130 435 106 q 497 186 483 154 q 511 256 511 218 l 511 765 z "},"E":{"ha":603,"x_min":104,"x_max":499,"o":"m 499 944 l 181 944 l 181 588 l 436 588 l 436 511 l 181 511 l 181 76 l 499 76 l 499 -1 l 104 -1 l 104 1021 l 499 1021 l 499 944 l 499 944 z "},"F":{"ha":603,"x_min":104,"x_max":499,"o":"m 499 944 l 181 944 l 181 588 l 436 588 l 436 511 l 181 511 l 181 -1 l 104 -1 l 104 1021 l 499 1021 l 499 944 l 499 944 z "},"G":{"ha":717,"x_min":104,"x_max":613,"o":"m 358 1 q 259 22 306 1 q 178 76 213 42 q 124 156 144 110 q 104 256 104 203 l 104 765 q 124 865 104 818 q 178 945 144 911 q 259 999 213 979 q 358 1019 306 1019 q 458 999 411 1019 q 538 945 504 979 q 592 865 572 911 q 613 765 613 818 l 536 765 q 522 835 536 803 q 484 891 508 867 q 428 929 460 915 q 358 943 396 943 q 290 929 322 943 q 233 891 257 915 q 194 835 208 867 q 181 765 181 803 l 181 256 q 194 186 181 218 q 233 130 208 154 q 290 92 257 106 q 358 78 322 78 q 428 92 396 78 q 484 130 460 106 q 522 186 508 154 q 536 256 536 218 l 536 472 l 358 472 l 358 549 l 613 549 l 613 256 q 592 156 613 203 q 538 76 572 110 q 458 22 504 42 q 358 1 411 1 z "},"H":{"ha":714,"x_min":104,"x_max":610,"o":"m 533 1021 l 610 1021 l 610 -1 l 533 -1 l 533 511 l 181 511 l 181 -1 l 104 -1 l 104 1021 l 181 1021 l 181 588 l 533 588 l 533 1021 l 533 1021 z "},"I":{"ha":386,"x_min":104,"x_max":282,"o":"m 282 943 l 232 943 l 232 76 l 282 76 l 282 0 l 232 0 l 232 -1 l 154 -1 l 154 0 l 104 0 l 104 76 l 154 76 l 154 943 l 104 943 l 104 1019 l 154 1019 l 154 1021 l 232 1021 l 232 1019 l 282 1019 l 282 943 l 282 943 z "},"J":{"ha":738,"x_min":104,"x_max":633,"o":"m 633 1022 l 633 267 q 613 164 633 213 q 556 79 592 115 q 472 22 521 43 q 369 1 424 1 q 267 22 315 1 q 182 79 218 43 q 125 164 146 115 q 104 267 104 213 l 104 383 l 181 383 l 181 267 q 195 194 181 228 q 235 134 210 160 q 296 94 261 108 q 369 79 331 79 q 442 94 408 79 q 502 134 476 108 q 542 194 528 160 q 557 267 557 228 l 557 944 l 369 944 l 369 1021 l 557 1021 l 557 1022 l 633 1022 z "},"K":{"ha":714,"x_min":104,"x_max":610,"o":"m 475 1021 l 564 1021 l 329 622 l 610 6 l 597 0 l 529 0 l 282 543 l 181 372 l 181 0 l 104 0 l 104 1021 l 181 1021 l 181 524 l 475 1021 l 475 1021 z "},"L":{"ha":565,"x_min":104,"x_max":461,"o":"m 461 76 l 461 0 l 181 0 l 181 0 l 104 0 l 104 1022 l 181 1022 l 181 76 l 461 76 l 461 76 z "},"M":{"ha":936,"x_min":104,"x_max":832,"o":"m 832 0 l 756 0 l 756 943 l 742 943 l 519 1 l 414 1 l 194 943 l 181 943 l 181 0 l 104 0 l 104 1019 l 256 1019 l 467 110 l 682 1019 l 832 1019 l 832 0 l 832 0 z "},"N":{"ha":768,"x_min":104,"x_max":664,"o":"m 181 -3 l 104 -3 l 104 1021 l 208 1021 l 588 136 l 588 1021 l 664 1021 l 664 0 l 561 0 l 181 892 l 181 -3 l 181 -3 z "},"O":{"ha":717,"x_min":104,"x_max":613,"o":"m 358 1 q 259 22 306 1 q 178 76 213 42 q 124 158 144 111 q 104 257 104 204 l 104 767 q 124 866 104 819 q 178 947 144 913 q 259 1001 213 981 q 358 1021 306 1021 q 458 1001 411 1021 q 538 947 504 981 q 592 866 572 913 q 613 767 613 819 l 613 257 q 592 158 613 204 q 538 76 572 111 q 458 22 504 42 q 358 1 411 1 m 358 944 q 290 931 322 944 q 233 892 257 917 q 194 836 208 868 q 181 767 181 804 l 181 257 q 194 188 181 219 q 233 131 208 156 q 290 93 257 107 q 358 79 322 79 q 428 93 396 79 q 484 131 460 107 q 522 188 508 156 q 536 257 536 219 l 536 767 q 522 836 536 804 q 484 892 508 868 q 428 931 460 917 q 358 944 396 944 z "},"P":{"ha":665,"x_min":104,"x_max":561,"o":"m 275 1021 q 387 998 335 1021 q 478 936 439 975 q 539 845 517 897 q 561 733 561 793 q 539 622 561 674 q 478 531 517 569 q 387 469 439 492 q 275 446 335 446 l 181 446 l 181 0 l 104 0 l 104 1021 l 181 1021 l 275 1021 m 275 524 q 356 540 318 524 q 423 585 394 557 q 468 652 451 614 q 485 733 485 690 q 468 815 485 776 q 423 883 451 854 q 356 928 394 911 q 275 944 318 944 l 181 944 l 181 524 l 275 524 z "},"Q":{"ha":768,"x_min":104,"x_max":664,"o":"m 664 281 l 613 281 l 613 257 q 592 158 613 204 q 538 76 572 111 q 458 22 504 42 q 358 1 411 1 q 259 22 306 1 q 178 76 213 42 q 124 158 144 111 q 104 257 104 204 l 104 767 q 124 866 104 819 q 178 947 144 913 q 259 1001 213 981 q 358 1021 306 1021 q 458 1001 411 1021 q 538 947 504 981 q 592 866 572 913 q 613 767 613 819 l 613 357 l 664 357 l 664 281 m 536 281 l 358 281 l 358 357 l 536 357 l 536 767 q 522 836 536 804 q 484 892 508 868 q 428 931 460 917 q 358 944 396 944 q 290 931 322 944 q 233 892 257 917 q 194 836 208 868 q 181 767 181 804 l 181 257 q 194 188 181 219 q 233 131 208 156 q 290 93 257 107 q 358 79 322 79 q 428 93 396 79 q 484 131 460 107 q 522 188 508 156 q 536 257 536 219 l 536 281 z "},"R":{"ha":686,"x_min":104,"x_max":582,"o":"m 424 489 q 538 383 494 451 q 582 228 582 314 l 582 0 l 506 0 l 506 228 q 488 312 506 272 q 442 381 471 351 q 373 427 413 410 q 289 444 333 444 l 181 444 l 181 0 l 104 0 l 104 1021 l 181 1021 l 275 1021 q 387 998 335 1021 q 478 936 439 975 q 539 845 517 897 q 561 733 561 793 q 524 591 561 656 q 424 489 486 526 m 181 944 l 181 524 l 275 524 q 356 540 318 524 q 423 585 394 557 q 468 652 451 614 q 485 733 485 690 q 468 815 485 776 q 423 883 451 854 q 356 928 394 911 q 275 944 318 944 l 181 944 z "},"S":{"ha":717,"x_min":104,"x_max":613,"o":"m 358 1 q 259 22 306 1 q 178 76 213 42 q 124 158 144 111 q 104 257 104 204 l 181 257 q 194 188 181 219 q 233 131 208 156 q 290 93 257 107 q 358 79 322 79 q 428 93 396 79 q 484 131 460 107 q 522 188 508 156 q 536 257 536 219 q 520 327 536 296 q 477 384 504 358 q 414 433 450 410 q 339 479 378 456 q 256 530 297 503 q 181 591 214 557 q 126 667 147 625 q 104 767 104 710 q 124 866 104 819 q 178 947 144 913 q 259 1001 213 981 q 358 1021 306 1021 q 458 1001 411 1021 q 538 947 504 981 q 592 866 572 913 q 613 767 613 819 l 536 767 q 522 836 536 804 q 484 892 508 868 q 428 931 460 917 q 358 944 396 944 q 290 931 322 944 q 233 892 257 917 q 194 836 208 868 q 181 767 181 804 q 197 696 181 726 q 240 640 213 665 q 302 591 267 614 q 378 544 338 568 q 461 492 419 519 q 536 432 503 465 q 591 356 569 399 q 613 257 613 313 q 592 158 613 204 q 538 76 572 111 q 458 22 504 42 q 358 1 411 1 z "},"T":{"ha":656,"x_min":104,"x_max":551,"o":"m 551 1021 l 551 944 l 367 944 l 367 0 l 290 0 l 290 944 l 104 944 l 104 1021 l 290 1021 l 290 1021 l 367 1021 l 367 1021 l 551 1021 l 551 1021 z "},"U":{"ha":788,"x_min":104,"x_max":683,"o":"m 419 1 q 317 22 365 1 q 233 79 268 43 q 176 164 197 115 q 156 267 156 213 l 156 943 l 104 943 l 104 1019 l 232 1019 l 232 267 q 247 194 232 228 q 287 134 261 160 q 347 94 313 108 q 419 79 381 79 q 492 94 458 79 q 552 134 526 108 q 592 194 578 160 q 607 267 607 228 l 607 1021 l 683 1021 l 683 267 q 663 164 683 213 q 606 79 642 115 q 522 22 571 43 q 419 1 474 1 z "},"V":{"ha":714,"x_min":104,"x_max":610,"o":"m 532 1021 l 610 1021 l 426 3 l 285 3 l 104 1021 l 182 1021 l 350 79 l 363 79 l 532 1021 l 532 1021 z "},"W":{"ha":1171,"x_min":104,"x_max":1067,"o":"m 989 1021 l 1067 1021 l 883 3 l 742 3 l 585 892 l 426 3 l 285 3 l 104 1021 l 182 1021 l 350 79 l 363 79 l 531 1021 l 640 1021 l 807 79 l 819 79 l 989 1021 l 989 1021 z "},"X":{"ha":735,"x_min":104,"x_max":631,"o":"m 631 1021 l 410 511 l 631 0 l 547 0 l 368 414 l 188 0 l 104 0 l 325 511 l 104 1021 l 188 1021 l 368 607 l 547 1021 l 631 1021 l 631 1021 z "},"Y":{"ha":707,"x_min":104,"x_max":603,"o":"m 524 1021 l 603 1021 l 360 0 l 281 0 l 347 281 l 279 281 l 104 1021 l 183 1021 l 340 357 l 365 357 l 524 1021 l 524 1021 z "},"Z":{"ha":639,"x_min":104,"x_max":535,"o":"m 535 0 l 108 0 l 108 81 l 415 944 l 104 944 l 104 1021 l 496 1021 l 496 940 l 189 76 l 458 76 l 458 128 l 535 128 l 535 0 l 535 0 z "},"a":{"ha":689,"x_min":104,"x_max":585,"o":"m 182 -1 l 104 -1 l 289 1021 l 404 1021 l 585 -1 l 507 -1 l 453 306 l 238 306 l 182 -1 m 346 908 l 251 382 l 439 382 l 346 908 z "},"b":{"ha":717,"x_min":104,"x_max":613,"o":"m 318 1 l 104 1 l 104 1019 l 281 1019 q 380 999 333 1019 q 460 945 426 979 q 515 865 494 911 q 535 765 535 818 q 510 635 535 690 q 440 547 485 579 q 504 504 474 531 q 585 407 557 461 q 613 294 613 353 q 590 181 613 233 q 526 88 567 128 q 433 24 486 47 q 318 1 379 1 m 181 78 l 318 78 q 403 95 364 78 q 472 142 443 113 q 519 210 501 171 q 536 294 536 250 q 517 369 536 332 q 465 438 499 407 q 387 490 432 469 q 290 511 342 510 l 181 511 l 181 78 m 290 588 l 318 588 q 395 610 367 588 q 438 661 424 632 q 455 720 451 690 q 458 765 458 750 q 444 835 458 803 q 406 891 431 867 q 349 929 382 915 q 281 943 317 943 l 181 943 l 181 588 l 281 589 q 290 588 288 589 z "},"c":{"ha":643,"x_min":104,"x_max":539,"o":"m 358 1 q 179 75 253 1 q 104 256 104 150 l 104 765 q 179 946 104 871 q 358 1019 253 1019 q 456 1001 410 1019 q 539 946 503 982 l 485 892 q 427 930 460 917 q 358 943 394 943 q 233 892 285 943 q 194 834 208 867 q 181 765 181 801 l 181 256 q 194 188 181 219 q 233 129 208 156 q 358 78 285 78 q 427 91 394 78 q 485 131 460 104 l 539 75 q 456 20 503 39 q 358 1 410 1 z "},"d":{"ha":692,"x_min":104,"x_max":588,"o":"m 333 1019 q 433 999 386 1019 q 513 945 479 979 q 567 865 547 911 q 588 765 588 818 l 588 256 q 567 156 588 203 q 513 76 547 110 q 433 22 479 42 q 333 1 386 1 l 181 1 l 181 -1 l 104 -1 l 104 1021 l 181 1021 l 181 1019 l 333 1019 m 511 765 q 497 835 511 803 q 459 891 483 867 q 402 929 435 915 q 333 943 369 943 l 181 943 l 181 78 l 333 78 q 402 92 369 78 q 459 130 435 106 q 497 186 483 154 q 511 256 511 218 l 511 765 z "},"e":{"ha":569,"x_min":104,"x_max":465,"o":"m 181 76 l 465 76 l 465 -1 l 104 -1 l 104 1021 l 403 1021 l 403 944 l 181 944 l 181 588 l 403 588 l 403 511 l 181 511 l 181 76 l 181 76 z "},"f":{"ha":507,"x_min":104,"x_max":403,"o":"m 403 944 l 181 944 l 181 588 l 403 588 l 403 511 l 181 511 l 181 -1 l 104 -1 l 104 1021 l 403 1021 l 403 944 l 403 944 z "},"g":{"ha":717,"x_min":104,"x_max":613,"o":"m 358 1 q 260 21 310 1 q 179 75 215 42 q 125 157 144 110 q 104 256 104 203 l 104 765 q 125 865 104 817 q 179 946 144 911 q 260 1000 215 982 q 308 1015 283 1011 q 358 1019 333 1019 q 458 1000 414 1019 q 539 946 504 981 l 485 892 q 428 929 460 917 q 359 944 396 944 q 289 929 322 944 q 233 892 258 917 q 194 835 210 868 q 184 801 188 818 q 181 765 181 785 l 181 256 q 184 220 181 238 q 194 186 188 203 q 233 129 210 153 q 289 92 260 106 q 359 78 322 78 q 428 92 396 78 q 485 129 461 107 q 506 156 496 142 q 522 186 515 171 q 536 256 536 218 l 536 472 l 358 472 l 358 549 l 613 549 l 613 256 q 593 157 613 204 q 569 113 583 133 q 539 75 556 93 q 457 21 504 42 q 358 1 410 1 z "},"h":{"ha":663,"x_min":104,"x_max":558,"o":"m 482 1021 l 558 1021 l 558 -1 l 482 -1 l 482 511 l 181 511 l 181 -1 l 104 -1 l 104 1021 l 181 1021 l 181 588 l 482 588 l 482 1021 l 482 1021 z "},"i":{"ha":285,"x_min":104,"x_max":181,"o":"m 181 -1 l 104 -1 l 104 1021 l 181 1021 l 181 -1 l 181 -1 z "},"j":{"ha":576,"x_min":104,"x_max":472,"o":"m 207 -1 q 155 4 181 -1 q 104 19 129 10 l 135 90 q 208 75 169 75 q 281 90 246 75 q 340 131 315 106 q 381 190 365 156 q 396 264 396 228 l 396 1019 l 472 1019 l 472 264 q 451 161 472 208 q 394 76 431 113 q 311 19 360 42 q 260 4 286 10 q 207 -1 235 -1 z "},"k":{"ha":672,"x_min":104,"x_max":568,"o":"m 551 88 q 556 76 551 81 q 568 71 561 71 l 568 -6 q 502 22 529 -6 q 475 88 475 49 l 475 290 q 458 374 475 335 q 413 442 442 413 q 346 490 385 472 q 263 507 307 507 l 181 369 l 181 -3 l 104 -3 l 104 1019 l 181 1019 l 181 521 l 475 1019 l 564 1019 l 306 581 q 402 546 357 572 q 481 481 447 519 q 533 394 514 443 q 551 290 551 344 l 551 88 l 551 88 z "},"l":{"ha":476,"x_min":104,"x_max":372,"o":"m 372 74 l 372 -3 l 181 -3 l 181 -3 l 104 -3 l 104 1019 l 181 1019 l 181 74 l 372 74 l 372 74 z "},"m":{"ha":860,"x_min":104,"x_max":756,"o":"m 756 -3 l 679 -3 l 679 835 l 482 -1 l 375 -1 l 181 832 l 181 -3 l 104 -3 l 104 1017 l 217 1017 l 429 107 l 643 1017 l 756 1017 l 756 -3 l 756 -3 z "},"n":{"ha":717,"x_min":104,"x_max":613,"o":"m 613 -3 l 536 -3 l 181 829 l 181 -3 l 104 -3 l 104 1018 l 183 1018 l 536 193 l 536 1018 l 613 1018 l 613 -3 l 613 -3 z "},"o":{"ha":717,"x_min":104,"x_max":613,"o":"m 358 -1 q 259 19 306 -1 q 178 74 213 39 q 124 155 144 108 q 104 254 104 201 l 104 764 q 124 863 104 817 q 178 944 144 910 q 259 998 213 978 q 358 1018 306 1018 q 458 998 411 1018 q 538 944 504 978 q 592 863 572 910 q 613 764 613 817 l 613 254 q 592 155 613 201 q 538 74 572 108 q 458 19 504 39 q 358 -1 411 -1 m 358 942 q 290 928 322 942 q 233 890 257 914 q 194 833 208 865 q 181 764 181 801 l 181 254 q 194 185 181 217 q 233 128 208 153 q 290 90 257 104 q 358 76 322 76 q 428 90 396 76 q 484 128 460 104 q 522 185 508 153 q 536 254 536 217 l 536 764 q 522 833 536 801 q 484 890 508 865 q 428 928 460 914 q 358 942 396 942 z "},"p":{"ha":676,"x_min":104,"x_max":572,"o":"m 181 -3 l 104 -3 l 104 1018 l 318 1018 q 417 998 371 1018 q 498 944 464 978 q 552 863 532 910 q 572 764 572 817 q 552 665 572 711 q 498 584 532 618 q 417 530 464 550 q 318 510 371 510 l 181 510 l 181 -3 m 181 586 l 318 586 q 388 600 356 586 q 444 638 419 614 q 482 694 468 663 q 496 764 496 726 q 482 833 496 801 q 444 890 468 865 q 388 928 419 914 q 318 942 356 942 l 181 942 l 181 586 z "},"q":{"ha":717,"x_min":104,"x_max":613,"o":"m 358 1018 q 458 998 411 1018 q 538 944 504 978 q 592 863 572 910 q 613 764 613 817 l 613 254 q 592 155 613 201 q 538 74 572 108 q 458 19 504 39 q 358 -1 411 -1 q 259 19 306 -1 q 178 74 213 39 q 124 155 144 108 q 104 254 104 201 l 104 764 q 124 863 104 817 q 178 944 144 910 q 259 998 213 978 q 358 1018 306 1018 m 358 76 q 428 90 396 76 q 484 128 460 104 q 522 185 508 153 q 536 254 536 217 l 536 278 l 358 278 l 358 354 l 536 354 l 536 764 q 522 833 536 801 q 484 890 508 865 q 428 928 460 914 q 358 942 396 942 q 290 928 322 942 q 233 890 257 914 q 194 833 208 865 q 181 764 181 801 l 181 254 q 194 185 181 217 q 233 128 208 153 q 290 90 257 104 q 358 76 322 76 z "},"r":{"ha":706,"x_min":104,"x_max":601,"o":"m 585 90 q 590 78 585 83 q 601 74 594 74 l 601 -3 q 535 24 563 -3 q 508 90 508 51 l 508 293 q 492 375 508 336 q 447 443 475 414 q 379 490 418 472 q 297 510 340 508 l 181 510 l 181 -3 l 104 -3 l 104 1018 l 318 1018 q 417 998 371 1018 q 498 944 464 978 q 552 863 532 910 q 572 764 572 817 q 538 634 572 693 q 444 543 503 575 q 546 438 507 504 q 585 293 585 372 l 585 90 m 181 586 l 290 586 l 297 586 l 318 586 q 388 600 356 586 q 444 638 419 614 q 482 694 468 663 q 496 764 496 726 q 482 833 496 801 q 444 890 468 865 q 388 928 419 914 q 318 942 356 942 l 181 942 l 181 586 z "},"s":{"ha":717,"x_min":104,"x_max":613,"o":"m 358 -1 q 260 19 307 -1 q 179 74 215 38 q 125 154 143 110 l 194 185 q 233 128 210 151 q 289 90 258 103 q 359 75 322 75 q 428 90 396 75 q 485 128 460 103 q 506 155 496 140 q 522 185 515 169 q 536 254 536 217 q 481 378 536 322 q 416 428 453 406 q 339 475 379 451 q 258 526 299 500 q 183 585 217 553 q 104 764 104 664 q 125 863 104 817 q 179 943 144 911 q 260 999 214 978 q 358 1018 310 1018 q 458 999 408 1018 q 539 943 506 976 q 569 906 556 926 q 593 863 583 886 l 522 833 q 485 889 510 864 q 428 928 461 913 q 359 942 396 942 q 289 928 322 942 q 233 889 257 913 q 211 863 221 878 q 194 833 201 849 q 184 799 188 817 q 181 764 181 782 q 238 640 181 696 q 301 589 265 613 q 378 542 338 565 q 460 491 419 518 q 533 432 501 464 q 613 254 613 357 q 593 154 613 204 q 569 111 583 131 q 539 74 556 92 q 458 19 504 39 q 358 -1 410 -1 z "},"t":{"ha":579,"x_min":104,"x_max":475,"o":"m 475 1021 l 475 944 l 328 944 l 328 0 l 251 0 l 251 944 l 104 944 l 104 1021 l 251 1021 l 251 1021 l 328 1021 l 328 1021 l 475 1021 l 475 1021 z "},"u":{"ha":738,"x_min":104,"x_max":633,"o":"m 369 1 q 267 22 315 1 q 182 79 218 43 q 125 164 146 115 q 104 267 104 213 l 104 1021 l 181 1021 l 181 267 q 195 193 181 228 q 235 133 210 158 q 296 92 261 107 q 369 78 331 78 q 442 92 408 78 q 502 133 476 107 q 542 193 528 158 q 557 267 557 228 l 557 1021 l 633 1021 l 633 267 q 613 164 633 213 q 556 79 592 115 q 472 22 521 43 q 369 1 424 1 z "},"v":{"ha":650,"x_min":104,"x_max":546,"o":"m 468 1021 l 546 1021 l 363 3 l 285 3 l 104 1021 l 182 1021 l 324 221 l 468 1021 l 468 1021 z "},"w":{"ha":1047,"x_min":104,"x_max":943,"o":"m 865 1021 l 943 1021 l 760 3 l 681 3 l 524 892 l 365 3 l 285 3 l 104 1021 l 182 1021 l 325 217 l 469 1021 l 579 1021 l 721 218 l 865 1021 l 865 1021 z "},"x":{"ha":718,"x_min":104,"x_max":614,"o":"m 614 1003 l 401 511 l 614 18 l 544 -12 l 360 414 l 175 -12 l 104 18 l 318 511 l 104 1003 l 175 1033 l 360 607 l 544 1033 l 614 1003 l 614 1003 z "},"y":{"ha":707,"x_min":104,"x_max":603,"o":"m 603 1021 l 360 0 l 281 0 l 350 294 q 285 341 313 310 q 247 415 258 372 l 104 1021 l 183 1021 l 322 433 q 368 371 333 390 l 524 1021 l 603 1021 z "},"z":{"ha":597,"x_min":104,"x_max":493,"o":"m 493 0 l 104 0 l 104 81 l 411 944 l 139 944 l 139 1021 l 492 1021 l 492 940 l 185 76 l 493 76 l 493 0 l 493 0 z "},"_":{"ha":619,"x_min":104,"x_max":515,"o":"m 515 1 l 104 1 l 104 78 l 515 78 l 515 1 l 515 1 z "},"+":{"ha":576,"x_min":104,"x_max":472,"o":"m 472 549 l 472 472 l 326 472 l 326 326 l 250 326 l 250 472 l 104 472 l 104 549 l 250 549 l 250 693 l 326 693 l 326 549 l 472 549 l 472 549 z "},"-":{"ha":550,"x_min":104,"x_max":446,"o":"m 446 472 l 104 472 l 104 549 l 446 549 l 446 472 l 446 472 z "},"–":{"ha":550,"x_min":104,"x_max":446,"o":"m 446 472 l 104 472 l 104 549 l 446 549 l 446 472 l 446 472 z "},"−":{"ha":550,"x_min":104,"x_max":446,"o":"m 446 472 l 104 472 l 104 549 l 446 549 l 446 472 l 446 472 z "},"=":{"ha":564,"x_min":104,"x_max":460,"o":"m 104 393 l 104 469 l 460 469 l 460 393 l 104 393 m 104 628 l 460 628 l 460 550 l 104 550 l 104 628 z "},"/":{"ha":554,"x_min":104,"x_max":450,"o":"m 371 1021 l 450 1021 l 183 -1 l 104 -1 l 371 1021 l 371 1021 z "},"\\":{"ha":554,"x_min":104,"x_max":450,"o":"m 183 1021 l 450 -1 l 371 -1 l 104 1021 l 183 1021 l 183 1021 z "},"|":{"ha":285,"x_min":104,"x_max":181,"o":"m 181 0 l 104 0 l 104 1021 l 181 1021 l 181 0 l 181 0 z "},"[":{"ha":419,"x_min":104,"x_max":315,"o":"m 315 1 l 104 1 l 104 1018 l 315 1018 l 315 942 l 181 942 l 181 78 l 315 78 l 315 1 l 315 1 z "},"]":{"ha":419,"x_min":104,"x_max":315,"o":"m 104 1018 l 315 1018 l 315 1 l 104 1 l 104 78 l 239 78 l 239 942 l 104 942 l 104 1018 l 104 1018 z "},"×":{"ha":522,"x_min":104,"x_max":418,"o":"m 418 407 l 364 353 l 261 456 l 158 353 l 104 407 l 207 510 l 104 613 l 158 667 l 261 564 l 364 667 l 418 613 l 315 510 l 418 407 l 418 407 z "},"*":{"ha":522,"x_min":104,"x_max":418,"o":"m 418 758 l 364 704 l 261 807 l 158 704 l 104 758 l 207 861 l 104 964 l 158 1018 l 261 915 l 364 1018 l 418 964 l 315 861 l 418 758 l 418 758 z "},"÷":{"ha":601,"x_min":104,"x_max":497,"o":"m 301 639 q 265 654 279 639 q 250 690 250 669 q 265 726 250 711 q 301 742 279 742 q 337 726 322 742 q 351 690 351 711 q 337 654 351 669 q 301 639 322 639 m 301 383 q 337 368 322 383 q 351 332 351 353 q 337 296 351 311 q 301 281 322 281 q 265 296 279 281 q 250 332 250 311 q 265 368 250 353 q 301 383 279 383 m 497 549 l 497 472 l 104 472 l 104 549 l 497 549 z "},":":{"ha":311,"x_min":104,"x_max":207,"o":"m 207 690 q 192 654 207 669 q 156 639 176 639 q 119 654 135 639 q 104 690 104 669 q 119 726 104 711 q 156 742 135 742 q 192 726 176 742 q 207 690 207 711 m 207 326 q 192 291 207 306 q 156 276 176 276 q 119 291 135 276 q 104 326 104 306 q 119 363 104 349 q 156 378 135 378 q 192 363 176 378 q 207 326 207 349 z "},".":{"ha":311,"x_min":104,"x_max":207,"o":"m 207 50 q 192 15 207 29 q 156 0 176 0 q 119 15 135 0 q 104 50 104 29 q 119 87 104 72 q 156 101 135 101 q 192 87 176 101 q 207 50 207 72 z "},",":{"ha":343,"x_min":104,"x_max":239,"o":"m 158 -119 l 104 -65 q 129 -35 118 -50 q 147 -1 140 -19 q 163 76 163 38 l 239 76 q 218 -31 239 19 q 192 -78 207 -56 q 158 -119 178 -100 z "},"!":{"ha":311,"x_min":104,"x_max":207,"o":"m 156 101 q 192 87 176 101 q 207 50 207 72 q 192 15 207 29 q 156 0 176 0 q 119 15 135 0 q 104 50 104 29 q 119 87 104 72 q 156 101 135 101 m 194 258 l 117 258 l 117 1021 l 194 1021 l 194 258 z "},"€":{"ha":947,"x_min":104,"x_max":843,"o":"m 843 192 q 776 93 818 135 q 676 26 732 49 q 556 1 619 1 q 435 26 490 1 q 335 93 378 49 q 268 192 293 135 q 244 313 244 251 l 244 385 l 104 385 l 104 461 l 244 461 l 244 558 l 131 558 l 131 635 l 244 635 l 244 707 q 268 828 244 769 q 335 928 293 883 q 435 994 378 969 q 556 1018 493 1018 q 676 994 618 1018 q 776 928 732 969 l 722 874 q 647 924 689 904 q 556 942 606 942 q 464 924 506 942 q 389 874 422 904 q 339 799 357 840 q 321 707 321 757 l 321 635 l 576 635 l 576 558 l 321 558 l 321 461 l 551 461 l 551 385 l 321 385 l 321 313 q 339 221 321 263 q 389 147 358 178 q 464 96 421 115 q 556 78 511 78 q 647 96 600 78 q 722 147 690 115 q 772 221 753 178 l 843 192 z "},"&":{"ha":901,"x_min":104,"x_max":797,"o":"m 797 400 l 715 400 q 728 313 728 358 q 703 192 728 250 q 636 93 679 135 q 538 26 594 50 q 417 1 479 1 q 294 26 353 1 q 196 93 238 50 q 129 192 153 135 q 104 313 104 250 q 129 435 104 376 q 196 533 153 490 q 279 593 232 569 q 208 675 235 625 q 181 785 181 725 q 199 876 181 833 q 250 951 218 919 q 325 1002 282 983 q 417 1021 368 1021 q 508 1002 465 1021 q 582 951 550 983 q 633 876 614 919 q 651 785 651 833 q 633 693 651 736 q 582 618 614 650 q 508 567 550 586 q 417 549 465 549 l 417 547 q 325 529 367 547 q 250 479 283 513 q 200 404 217 446 q 181 313 181 358 q 200 221 181 267 q 250 147 217 178 q 285 118 265 131 q 325 96 304 106 q 417 78 372 78 q 463 83 440 78 q 507 96 486 88 q 582 147 551 115 q 632 221 615 178 q 651 313 651 267 q 635 400 651 358 l 524 400 l 524 476 l 797 476 l 797 400 m 417 944 q 354 932 383 944 q 303 897 325 919 q 269 847 282 875 q 257 785 257 818 q 269 723 257 751 q 303 672 282 694 q 354 638 325 650 q 417 625 383 625 q 478 638 450 625 q 528 672 507 650 q 563 723 550 694 q 575 785 575 751 q 563 847 575 818 q 528 897 550 875 q 478 932 507 919 q 417 944 450 944 z "},"$":{"ha":717,"x_min":104,"x_max":613,"o":"m 533 433 q 613 254 613 356 q 593 156 613 203 q 569 113 583 132 q 539 75 556 93 q 458 19 506 42 q 428 10 443 14 q 397 3 413 6 l 397 -65 l 321 -65 l 321 3 q 290 10 306 6 q 260 19 275 14 q 179 75 214 40 q 125 156 143 111 l 194 185 q 211 155 201 169 q 233 129 221 140 q 289 90 257 104 q 321 81 303 85 l 321 488 q 248 533 283 510 q 183 586 213 557 q 104 765 104 665 q 125 864 104 815 q 179 944 143 908 q 260 999 215 981 q 290 1010 275 1006 q 321 1017 306 1014 l 321 1083 l 397 1083 l 397 1017 q 458 999 429 1010 q 539 944 504 979 q 569 907 556 926 q 593 864 583 888 l 522 833 q 506 864 515 850 q 485 890 496 878 q 428 928 460 915 q 413 933 421 931 q 397 938 404 936 l 397 532 q 469 485 433 510 q 533 433 506 461 m 238 640 q 321 578 272 607 l 321 938 q 305 933 313 936 q 289 928 297 931 q 233 890 258 915 q 194 833 208 865 q 181 765 181 799 q 238 640 181 696 m 522 185 q 536 254 536 217 q 481 379 536 322 q 442 411 463 396 q 397 442 421 426 l 397 81 q 413 85 404 83 q 428 90 421 88 q 485 129 461 106 q 522 185 510 154 z "},"#":{"ha":850,"x_min":104,"x_max":746,"o":"m 685 1021 l 632 701 l 746 701 l 746 625 l 621 625 l 586 418 l 706 418 l 706 342 l 574 342 l 518 -1 l 440 -1 l 496 342 l 300 342 l 244 -1 l 167 -1 l 222 342 l 104 342 l 104 418 l 235 418 l 269 625 l 140 625 l 140 701 l 282 701 l 333 1021 l 411 1021 l 360 701 l 556 701 l 607 1021 l 685 1021 m 508 418 l 543 625 l 347 625 l 313 418 l 508 418 z "},"˝":{"ha":421,"x_min":104,"x_max":317,"o":"m 317 828 l 240 828 l 240 1019 l 317 1019 l 317 828 l 317 828 m 181 828 l 104 828 l 104 1019 l 181 1019 l 181 828 l 181 828 z "},"\"":{"ha":421,"x_min":104,"x_max":317,"o":"m 317 828 l 240 828 l 240 1019 l 317 1019 l 317 828 l 317 828 m 181 828 l 104 828 l 104 1019 l 181 1019 l 181 828 l 181 828 z "},"“":{"ha":421,"x_min":104,"x_max":317,"o":"m 317 828 l 240 828 l 240 1019 l 317 1019 l 317 828 l 317 828 m 181 828 l 104 828 l 104 1019 l 181 1019 l 181 828 l 181 828 z "},"”":{"ha":421,"x_min":104,"x_max":317,"o":"m 317 828 l 240 828 l 240 1019 l 317 1019 l 317 828 l 317 828 m 181 828 l 104 828 l 104 1019 l 181 1019 l 181 828 l 181 828 z "},"'":{"ha":285,"x_min":104,"x_max":181,"o":"m 181 828 l 104 828 l 104 1019 l 181 1019 l 181 828 l 181 828 z "},"‘":{"ha":285,"x_min":104,"x_max":181,"o":"m 181 828 l 104 828 l 104 1019 l 181 1019 l 181 828 l 181 828 z "},"’":{"ha":285,"x_min":104,"x_max":181,"o":"m 181 828 l 104 828 l 104 1019 l 181 1019 l 181 828 l 181 828 z "},"(":{"ha":385,"x_min":104,"x_max":281,"o":"m 199 3 q 128 271 151 149 q 104 510 104 393 q 128 750 104 628 q 200 1019 153 872 l 281 1019 l 281 1018 q 225 831 247 918 q 192 665 203 744 q 181 510 181 586 q 192 353 181 433 q 224 188 203 274 q 279 3 246 101 l 199 3 l 199 3 z "},")":{"ha":386,"x_min":104,"x_max":282,"o":"m 186 1019 q 258 751 233 874 q 281 512 282 629 q 256 272 281 394 q 185 3 232 150 l 106 3 l 104 4 q 179 276 154 154 q 205 513 204 397 q 181 749 206 628 q 106 1019 156 871 l 186 1019 l 186 1019 z "},"á":{"ha":654,"x_min":104,"x_max":550,"o":"m 550 1 l 104 1 l 104 79 l 550 79 l 550 1 l 550 1 m 186 189 l 108 189 l 258 1021 l 399 1021 l 547 189 l 469 189 l 438 368 l 219 368 l 186 189 m 322 943 l 233 446 l 424 446 l 335 943 l 322 943 z "},"é":{"ha":575,"x_min":104,"x_max":471,"o":"m 471 944 l 181 944 l 181 664 l 403 664 l 403 588 l 181 588 l 181 265 l 471 265 l 471 189 l 104 189 l 104 1021 l 471 1021 l 471 944 m 104 1 l 104 79 l 471 79 l 471 1 l 104 1 z "},"í":{"ha":386,"x_min":104,"x_max":282,"o":"m 282 943 l 232 943 l 232 267 l 282 267 l 282 190 l 232 190 l 232 190 l 154 190 l 154 190 l 104 190 l 104 267 l 154 267 l 154 943 l 104 943 l 104 1019 l 154 1019 l 154 1021 l 232 1021 l 232 1019 l 282 1019 l 282 943 m 104 1 l 104 79 l 282 79 l 282 1 l 104 1 z "},"ó":{"ha":632,"x_min":104,"x_max":528,"o":"m 315 190 q 233 207 271 190 q 166 252 194 224 q 121 319 138 281 q 104 401 104 357 l 104 810 q 121 891 104 853 q 166 958 138 929 q 233 1004 194 988 q 315 1021 271 1021 q 397 1004 358 1021 q 465 958 436 988 q 510 891 493 929 q 526 810 526 853 l 526 401 q 510 319 526 357 q 465 252 493 281 q 397 207 436 224 q 315 190 358 190 m 181 401 q 191 349 181 374 q 220 306 201 324 q 263 277 239 288 q 315 267 288 267 q 367 277 343 267 q 410 306 392 288 q 440 349 429 324 q 450 401 450 374 l 450 810 q 440 862 450 838 q 410 904 429 886 q 367 933 392 922 q 315 943 343 943 q 263 933 288 943 q 220 904 239 922 q 191 862 201 886 q 181 810 181 838 l 181 401 m 528 79 l 528 1 l 106 1 l 106 79 l 528 79 z "},"ú":{"ha":632,"x_min":104,"x_max":528,"o":"m 315 190 q 233 207 271 190 q 166 252 194 224 q 121 319 138 281 q 104 401 104 357 l 104 1022 l 181 1022 l 181 401 q 191 349 181 374 q 220 306 201 324 q 263 277 239 288 q 315 267 288 267 q 411 306 372 267 q 450 401 450 344 l 450 1022 l 526 1022 l 526 401 q 510 319 526 357 q 465 252 493 281 q 397 207 436 224 q 315 190 358 190 m 528 79 l 528 1 l 106 1 l 106 79 l 528 79 z "},";":{"ha":353,"x_min":104,"x_max":249,"o":"m 249 692 q 233 655 249 669 q 197 640 218 640 q 161 655 176 640 q 146 692 146 669 q 161 727 146 713 q 197 742 176 742 q 233 727 218 742 q 249 692 249 713 m 158 179 l 104 233 q 147 296 133 263 q 163 374 163 331 l 240 374 q 218 267 240 322 q 158 179 199 219 z "},"@":{"ha":971,"x_min":104,"x_max":867,"o":"m 867 414 q 857 361 867 385 q 826 317 847 338 q 783 288 807 297 q 676 288 729 264 q 632 317 650 299 q 619 332 628 321 q 560 289 594 304 q 486 274 526 274 q 415 288 449 274 q 357 328 382 303 q 317 386 332 353 q 303 457 303 419 l 303 563 q 317 633 303 600 q 357 692 332 667 q 415 731 382 717 q 486 746 449 746 q 557 731 524 746 q 615 692 590 717 q 653 633 639 667 q 668 563 668 600 l 668 488 l 668 457 l 668 414 q 674 390 668 400 q 686 371 678 379 q 706 358 694 363 q 753 358 731 347 q 772 371 763 361 q 786 390 782 381 q 790 414 790 400 l 790 636 q 767 756 790 697 q 701 851 744 808 q 604 917 660 893 q 486 942 547 942 q 367 917 422 942 q 271 851 314 894 q 206 756 229 813 q 181 636 181 699 l 181 383 q 206 264 181 322 q 271 168 229 207 q 367 103 314 125 q 486 78 422 78 q 604 103 547 78 q 701 168 660 126 l 756 114 q 635 32 704 63 q 486 1 561 1 q 338 32 411 1 q 217 114 269 61 q 135 235 165 164 q 104 383 104 304 l 104 636 q 135 785 104 715 q 217 906 165 856 q 338 988 267 957 q 486 1018 411 1018 q 635 988 561 1018 q 699 953 668 972 q 756 906 729 933 q 838 785 808 853 q 867 636 867 714 l 867 414 m 486 350 q 561 381 531 350 q 592 457 592 413 l 592 488 l 592 563 q 561 638 592 607 q 486 669 531 669 q 410 638 442 669 q 379 563 379 607 l 379 457 q 410 381 379 413 q 486 350 442 350 z "},">":{"ha":522,"x_min":104,"x_max":418,"o":"m 104 685 l 418 540 l 418 476 l 104 335 l 104 418 l 304 508 l 104 601 l 104 685 l 104 685 z "},"<":{"ha":522,"x_min":104,"x_max":418,"o":"m 418 335 l 104 479 l 104 543 l 418 685 l 418 601 l 218 511 l 418 418 l 418 335 l 418 335 z "},"^":{"ha":558,"x_min":104,"x_max":454,"o":"m 104 704 l 249 1018 l 313 1018 l 454 704 l 371 704 l 281 904 l 189 704 l 104 704 l 104 704 z "},"?":{"ha":717,"x_min":104,"x_max":613,"o":"m 358 101 q 394 87 379 101 q 410 50 410 72 q 394 15 410 29 q 358 0 379 0 q 322 15 338 0 q 307 50 307 29 q 322 87 307 72 q 358 101 338 101 m 358 1021 q 458 1001 411 1021 q 538 946 504 981 q 592 865 572 911 q 613 767 613 818 q 602 675 613 714 q 576 606 592 636 q 540 553 560 576 q 500 508 519 529 q 462 465 481 488 q 428 414 443 443 q 406 347 414 385 q 397 257 397 310 l 321 257 q 332 367 321 321 q 360 449 343 414 q 400 510 378 483 q 444 560 422 536 q 481 600 464 581 q 510 643 497 619 q 529 697 522 667 q 536 767 536 726 q 522 835 536 803 q 484 891 508 867 q 428 929 460 915 q 358 943 396 943 q 290 929 322 943 q 233 891 257 915 q 194 835 208 867 q 181 767 181 803 l 181 682 l 104 682 l 104 767 q 124 865 104 818 q 178 946 144 911 q 259 1001 213 981 q 358 1021 306 1021 z "},"¿":{"ha":717,"x_min":104,"x_max":613,"o":"m 358 918 q 322 933 338 918 q 307 969 307 947 q 322 1006 307 990 q 358 1021 338 1021 q 394 1006 379 1021 q 410 969 410 990 q 394 933 410 947 q 358 918 379 918 m 358 0 q 259 20 306 0 q 178 74 213 40 q 124 154 144 108 q 104 253 104 200 q 115 344 104 304 q 141 413 125 383 q 177 467 157 443 q 217 511 197 490 q 255 554 236 532 q 288 606 274 576 q 312 672 303 635 q 321 763 321 710 l 397 763 q 386 652 397 699 q 357 571 375 606 q 317 510 339 536 q 272 460 294 483 q 236 419 253 439 q 207 376 219 400 q 188 323 194 353 q 181 253 181 293 q 194 184 181 217 q 233 128 208 151 q 290 90 257 104 q 358 76 322 76 q 428 90 396 76 q 484 128 460 104 q 522 184 508 151 q 536 253 536 217 l 536 338 l 613 338 l 613 253 q 592 154 613 200 q 538 74 572 108 q 458 20 504 40 q 358 0 411 0 z "},"%":{"ha":788,"x_min":104,"x_max":683,"o":"m 240 750 q 188 760 213 750 q 144 790 163 771 q 115 833 125 808 q 104 885 104 857 q 144 981 104 942 q 240 1021 183 1021 q 292 1010 268 1021 q 335 981 317 1000 q 365 938 354 963 q 375 885 375 913 q 365 833 375 857 q 335 790 354 808 q 292 760 317 771 q 240 750 268 750 m 240 943 q 198 926 215 943 q 181 885 181 910 q 198 844 181 861 q 240 826 215 826 q 281 844 264 826 q 299 885 299 861 q 281 926 299 910 q 240 943 264 943 m 549 269 q 601 259 576 269 q 644 231 625 249 q 673 188 663 213 q 683 135 683 163 q 673 82 683 107 q 644 39 663 57 q 601 10 625 21 q 549 0 576 0 q 452 39 492 0 q 413 135 413 78 q 452 231 413 192 q 549 269 492 269 m 549 76 q 590 94 572 76 q 607 135 607 111 q 590 176 607 158 q 549 193 572 193 q 507 176 524 193 q 490 135 490 158 q 507 94 490 111 q 549 76 524 76 m 679 1021 l 192 -1 l 107 -1 l 594 1021 l 679 1021 z "},"⁄":{"ha":554,"x_min":104,"x_max":450,"o":"m 371 1021 l 450 1021 l 183 -1 l 104 -1 l 371 1021 l 371 1021 z "}," ":{"ha":290,"x_min":0,"x_max":0,"o":""},"ÿ":{"ha":1157,"x_min":0,"x_max":0,"o":""},"A":{"ha":714,"x_min":104,"x_max":610,"o":"m 182 -1 l 104 -1 l 289 1021 l 429 1021 l 610 -1 l 532 -1 l 494 217 l 221 217 l 182 -1 m 353 944 l 235 293 l 481 293 l 365 944 l 353 944 z "}}}
